<svg width="238" height="55" viewBox="0 0 238 55" fill="none" xmlns="http://www.w3.org/2000/svg">
<path d="M18.2079 15.1828H4.04013L9.18988 1.65576H42.2479L24.212 39.6524H41.1705L36.0184 53.1793H0.171875L18.2079 15.1828Z" fill="#83D9AE"/>
<path d="M43.5355 27.4222C43.4791 23.8017 44.2116 20.2122 45.682 16.9032C47.1056 13.7285 49.0665 10.8235 51.4784 8.31596C53.9859 5.90398 56.891 3.94303 60.0657 2.51952C63.3917 1.10298 66.9696 0.372803 70.5847 0.372803C74.1998 0.372803 77.7777 1.10298 81.1038 2.51952C84.2785 3.94303 87.1835 5.90398 89.691 8.31596C92.103 10.8234 94.0639 13.7285 95.4874 16.9032C96.9579 20.2122 97.6904 23.8017 97.634 27.4222C97.6904 31.0428 96.9579 34.6322 95.4874 37.9412C94.0644 41.1149 92.1043 44.0192 89.6934 46.5261C87.1859 48.9381 84.2808 50.8991 81.1061 52.3226C77.7801 53.7391 74.2022 54.4693 70.5871 54.4693C66.972 54.4693 63.3941 53.7391 60.0681 52.3226C56.8934 50.8991 53.9883 48.9381 51.4808 46.5261C49.0688 44.0187 47.1079 41.1136 45.6844 37.9389C44.3143 34.5993 43.5853 31.0316 43.5355 27.4222ZM59.8509 27.4222C59.8032 28.9003 60.0972 30.3694 60.71 31.7153C61.8603 34.2968 63.925 36.3615 66.5065 37.5117C67.867 38.0786 69.3262 38.3704 70.8001 38.3704C72.274 38.3704 73.7332 38.0786 75.0937 37.5117C77.6752 36.3615 79.7399 34.2968 80.8902 31.7153C81.5009 30.3689 81.7929 28.8998 81.7433 27.4222C81.77 25.946 81.477 24.4815 80.8842 23.1292C79.734 20.5477 77.6693 18.483 75.0878 17.3328C73.7419 16.7199 72.2728 16.426 70.7948 16.4737C69.3185 16.447 67.854 16.74 66.5017 17.3328C63.9202 18.483 61.8555 20.5477 60.7053 23.1292C60.1142 24.4818 59.8227 25.9464 59.8509 27.4222Z" fill="#83D9AE"/>
<path d="M106.005 1.65576H123.393V53.177H106.005V1.65576Z" fill="#83D9AE"/>
<path d="M131.766 27.4222C131.709 23.8017 132.442 20.2122 133.912 16.9032C135.336 13.7285 137.297 10.8234 139.709 8.31596C142.216 5.904 145.121 3.94305 148.296 2.51952C151.622 1.10298 155.2 0.372803 158.815 0.372803C162.43 0.372803 166.008 1.10298 169.334 2.51952C172.509 3.94303 175.414 5.90398 177.921 8.31596C180.333 10.8234 182.294 13.7285 183.718 16.9032C185.188 20.2122 185.921 23.8017 185.864 27.4222C185.921 31.0428 185.188 34.6322 183.718 37.9412C182.295 41.1149 180.335 44.0192 177.924 46.5261C175.416 48.9381 172.511 50.8991 169.336 52.3226C166.01 53.7391 162.432 54.4693 158.817 54.4693C155.202 54.4693 151.624 53.7391 148.298 52.3226C145.124 50.899 142.219 48.9381 139.711 46.5261C137.299 44.0187 135.338 41.1136 133.915 37.9389C132.444 34.6308 131.71 31.0422 131.766 27.4222ZM147.866 27.4222C147.819 28.9003 148.113 30.3694 148.725 31.7153C149.876 34.2968 151.94 36.3615 154.522 37.5117C155.882 38.0786 157.342 38.3704 158.816 38.3704C160.289 38.3704 161.749 38.0786 163.109 37.5117C165.691 36.3615 167.755 34.2968 168.906 31.7153C169.518 30.3694 169.812 28.9003 169.765 27.4222C169.791 25.946 169.498 24.4815 168.906 23.1292C167.755 20.5477 165.691 18.483 163.109 17.3328C161.763 16.7199 160.294 16.426 158.816 16.4737C157.34 16.447 155.875 16.74 154.523 17.3328C151.942 18.483 149.877 20.5477 148.727 23.1292C148.235 24.5114 147.945 25.9573 147.866 27.4222Z" fill="#83D9AE"/>
<path d="M194.021 1.65576H207.548L221.716 21.6199V1.65576H237.816V53.177H224.289L210.122 33.4276V53.177H194.021V1.65576Z" fill="#83D9AE"/>
</svg>
