<svg width="15" height="15" viewBox="0 0 15 15" fill="none" xmlns="http://www.w3.org/2000/svg">
<path d="M15 0V5.625H13.125V3.21094L9.39844 6.91406C9.69531 7.35156 9.92188 7.81656 10.0781 8.30906C10.2344 8.80156 10.3125 9.31313 10.3125 9.84375C10.3125 11.2812 9.8125 12.5 8.8125 13.5C7.8125 14.5 6.59375 15 5.15625 15C3.71875 15 2.5 14.5 1.5 13.5C0.5 12.5 0 11.2812 0 9.84375C0 8.40625 0.5 7.1875 1.5 6.1875C2.5 5.1875 3.71875 4.6875 5.15625 4.6875C5.67188 4.6875 6.17969 4.76156 6.67969 4.90969C7.17969 5.05781 7.64062 5.28844 8.0625 5.60156L11.7891 1.875H9.375V0H15ZM5.15625 6.5625C4.25 6.5625 3.47656 6.88281 2.83594 7.52344C2.19531 8.16406 1.875 8.9375 1.875 9.84375C1.875 10.75 2.19531 11.5234 2.83594 12.1641C3.47656 12.8047 4.25 13.125 5.15625 13.125C6.0625 13.125 6.83594 12.8047 7.47656 12.1641C8.11719 11.5234 8.4375 10.75 8.4375 9.84375C8.4375 8.9375 8.11719 8.16406 7.47656 7.52344C6.83594 6.88281 6.0625 6.5625 5.15625 6.5625Z" fill="white"/>
</svg>
