<svg width="57" height="57" viewBox="0 0 57 57" fill="none" xmlns="http://www.w3.org/2000/svg">
<g filter="url(#filter0_d_2217_4431)">
<g filter="url(#filter1_d_2217_4431)">
<circle cx="28.5" cy="26.5" r="16.5" fill="#83D9AE"/>
</g>
<path d="M31.06 23L32 23.94L22.92 33H22V32.08L31.06 23ZM34.66 17C34.41 17 34.15 17.1 33.96 17.29L32.13 19.12L35.88 22.87L37.71 21.04C38.1 20.65 38.1 20 37.71 19.63L35.37 17.29C35.17 17.09 34.92 17 34.66 17ZM31.06 20.19L20 31.25V35H23.75L34.81 23.94L31.06 20.19Z" fill="#124559"/>
</g>
<defs>
<filter id="filter0_d_2217_4431" x="0" y="0" width="57" height="57" filterUnits="userSpaceOnUse" color-interpolation-filters="sRGB">
<feFlood flood-opacity="0" result="BackgroundImageFix"/>
<feColorMatrix in="SourceAlpha" type="matrix" values="0 0 0 0 0 0 0 0 0 0 0 0 0 0 0 0 0 0 127 0" result="hardAlpha"/>
<feOffset dy="2"/>
<feGaussianBlur stdDeviation="6"/>
<feComposite in2="hardAlpha" operator="out"/>
<feColorMatrix type="matrix" values="0 0 0 0 0.0784314 0 0 0 0 0.0784314 0 0 0 0 0.168627 0 0 0 0.08 0"/>
<feBlend mode="normal" in2="BackgroundImageFix" result="effect1_dropShadow_2217_4431"/>
<feBlend mode="normal" in="SourceGraphic" in2="effect1_dropShadow_2217_4431" result="shape"/>
</filter>
<filter id="filter1_d_2217_4431" x="0" y="0" width="57" height="57" filterUnits="userSpaceOnUse" color-interpolation-filters="sRGB">
<feFlood flood-opacity="0" result="BackgroundImageFix"/>
<feColorMatrix in="SourceAlpha" type="matrix" values="0 0 0 0 0 0 0 0 0 0 0 0 0 0 0 0 0 0 127 0" result="hardAlpha"/>
<feOffset dy="2"/>
<feGaussianBlur stdDeviation="6"/>
<feComposite in2="hardAlpha" operator="out"/>
<feColorMatrix type="matrix" values="0 0 0 0 0.0784314 0 0 0 0 0.0784314 0 0 0 0 0.168627 0 0 0 0.08 0"/>
<feBlend mode="normal" in2="BackgroundImageFix" result="effect1_dropShadow_2217_4431"/>
<feBlend mode="normal" in="SourceGraphic" in2="effect1_dropShadow_2217_4431" result="shape"/>
</filter>
</defs>
</svg>
